G04 #@! TF.GenerationSoftware,KiCad,Pcbnew,(5.1.4)-1*
G04 #@! TF.CreationDate,2020-09-25T18:06:27-04:00*
G04 #@! TF.ProjectId,2x2 micro pad,32783220-6d69-4637-926f-207061642e6b,rev?*
G04 #@! TF.SameCoordinates,Original*
G04 #@! TF.FileFunction,Soldermask,Top*
G04 #@! TF.FilePolarity,Negative*
%FSLAX46Y46*%
G04 Gerber Fmt 4.6, Leading zero omitted, Abs format (unit mm)*
G04 Created by KiCad (PCBNEW (5.1.4)-1) date 2020-09-25 18:06:27*
%MOMM*%
%LPD*%
G04 APERTURE LIST*
%ADD10C,0.100000*%
G04 APERTURE END LIST*
D10*
G36*
X208558974Y-82171184D02*
G01*
X208776974Y-82261483D01*
X208931123Y-82325333D01*
X209266048Y-82549123D01*
X209550877Y-82833952D01*
X209774667Y-83168877D01*
X209807062Y-83247086D01*
X209928816Y-83541026D01*
X210007400Y-83936094D01*
X210007400Y-84338906D01*
X209928816Y-84733974D01*
X209877951Y-84856772D01*
X209774667Y-85106123D01*
X209550877Y-85441048D01*
X209266048Y-85725877D01*
X208931123Y-85949667D01*
X208776974Y-86013517D01*
X208558974Y-86103816D01*
X208163906Y-86182400D01*
X207761094Y-86182400D01*
X207366026Y-86103816D01*
X207148026Y-86013517D01*
X206993877Y-85949667D01*
X206658952Y-85725877D01*
X206374123Y-85441048D01*
X206150333Y-85106123D01*
X206047049Y-84856772D01*
X205996184Y-84733974D01*
X205917600Y-84338906D01*
X205917600Y-83936094D01*
X205996184Y-83541026D01*
X206117938Y-83247086D01*
X206150333Y-83168877D01*
X206374123Y-82833952D01*
X206658952Y-82549123D01*
X206993877Y-82325333D01*
X207148026Y-82261483D01*
X207366026Y-82171184D01*
X207761094Y-82092600D01*
X208163906Y-82092600D01*
X208558974Y-82171184D01*
X208558974Y-82171184D01*
G37*
G36*
X227608974Y-82171184D02*
G01*
X227826974Y-82261483D01*
X227981123Y-82325333D01*
X228316048Y-82549123D01*
X228600877Y-82833952D01*
X228824667Y-83168877D01*
X228857062Y-83247086D01*
X228978816Y-83541026D01*
X229057400Y-83936094D01*
X229057400Y-84338906D01*
X228978816Y-84733974D01*
X228927951Y-84856772D01*
X228824667Y-85106123D01*
X228600877Y-85441048D01*
X228316048Y-85725877D01*
X227981123Y-85949667D01*
X227826974Y-86013517D01*
X227608974Y-86103816D01*
X227213906Y-86182400D01*
X226811094Y-86182400D01*
X226416026Y-86103816D01*
X226198026Y-86013517D01*
X226043877Y-85949667D01*
X225708952Y-85725877D01*
X225424123Y-85441048D01*
X225200333Y-85106123D01*
X225097049Y-84856772D01*
X225046184Y-84733974D01*
X224967600Y-84338906D01*
X224967600Y-83936094D01*
X225046184Y-83541026D01*
X225167938Y-83247086D01*
X225200333Y-83168877D01*
X225424123Y-82833952D01*
X225708952Y-82549123D01*
X226043877Y-82325333D01*
X226198026Y-82261483D01*
X226416026Y-82171184D01*
X226811094Y-82092600D01*
X227213906Y-82092600D01*
X227608974Y-82171184D01*
X227608974Y-82171184D01*
G37*
G36*
X213312604Y-83247085D02*
G01*
X213481126Y-83316889D01*
X213632791Y-83418228D01*
X213761772Y-83547209D01*
X213863111Y-83698874D01*
X213932915Y-83867396D01*
X213968500Y-84046297D01*
X213968500Y-84228703D01*
X213932915Y-84407604D01*
X213863111Y-84576126D01*
X213761772Y-84727791D01*
X213632791Y-84856772D01*
X213481126Y-84958111D01*
X213312604Y-85027915D01*
X213133703Y-85063500D01*
X212951297Y-85063500D01*
X212772396Y-85027915D01*
X212603874Y-84958111D01*
X212452209Y-84856772D01*
X212323228Y-84727791D01*
X212221889Y-84576126D01*
X212152085Y-84407604D01*
X212116500Y-84228703D01*
X212116500Y-84046297D01*
X212152085Y-83867396D01*
X212221889Y-83698874D01*
X212323228Y-83547209D01*
X212452209Y-83418228D01*
X212603874Y-83316889D01*
X212772396Y-83247085D01*
X212951297Y-83211500D01*
X213133703Y-83211500D01*
X213312604Y-83247085D01*
X213312604Y-83247085D01*
G37*
G36*
X203152604Y-83247085D02*
G01*
X203321126Y-83316889D01*
X203472791Y-83418228D01*
X203601772Y-83547209D01*
X203703111Y-83698874D01*
X203772915Y-83867396D01*
X203808500Y-84046297D01*
X203808500Y-84228703D01*
X203772915Y-84407604D01*
X203703111Y-84576126D01*
X203601772Y-84727791D01*
X203472791Y-84856772D01*
X203321126Y-84958111D01*
X203152604Y-85027915D01*
X202973703Y-85063500D01*
X202791297Y-85063500D01*
X202612396Y-85027915D01*
X202443874Y-84958111D01*
X202292209Y-84856772D01*
X202163228Y-84727791D01*
X202061889Y-84576126D01*
X201992085Y-84407604D01*
X201956500Y-84228703D01*
X201956500Y-84046297D01*
X201992085Y-83867396D01*
X202061889Y-83698874D01*
X202163228Y-83547209D01*
X202292209Y-83418228D01*
X202443874Y-83316889D01*
X202612396Y-83247085D01*
X202791297Y-83211500D01*
X202973703Y-83211500D01*
X203152604Y-83247085D01*
X203152604Y-83247085D01*
G37*
G36*
X232362604Y-83247085D02*
G01*
X232531126Y-83316889D01*
X232682791Y-83418228D01*
X232811772Y-83547209D01*
X232913111Y-83698874D01*
X232982915Y-83867396D01*
X233018500Y-84046297D01*
X233018500Y-84228703D01*
X232982915Y-84407604D01*
X232913111Y-84576126D01*
X232811772Y-84727791D01*
X232682791Y-84856772D01*
X232531126Y-84958111D01*
X232362604Y-85027915D01*
X232183703Y-85063500D01*
X232001297Y-85063500D01*
X231822396Y-85027915D01*
X231653874Y-84958111D01*
X231502209Y-84856772D01*
X231373228Y-84727791D01*
X231271889Y-84576126D01*
X231202085Y-84407604D01*
X231166500Y-84228703D01*
X231166500Y-84046297D01*
X231202085Y-83867396D01*
X231271889Y-83698874D01*
X231373228Y-83547209D01*
X231502209Y-83418228D01*
X231653874Y-83316889D01*
X231822396Y-83247085D01*
X232001297Y-83211500D01*
X232183703Y-83211500D01*
X232362604Y-83247085D01*
X232362604Y-83247085D01*
G37*
G36*
X222202604Y-83247085D02*
G01*
X222371126Y-83316889D01*
X222522791Y-83418228D01*
X222651772Y-83547209D01*
X222753111Y-83698874D01*
X222822915Y-83867396D01*
X222858500Y-84046297D01*
X222858500Y-84228703D01*
X222822915Y-84407604D01*
X222753111Y-84576126D01*
X222651772Y-84727791D01*
X222522791Y-84856772D01*
X222371126Y-84958111D01*
X222202604Y-85027915D01*
X222023703Y-85063500D01*
X221841297Y-85063500D01*
X221662396Y-85027915D01*
X221493874Y-84958111D01*
X221342209Y-84856772D01*
X221213228Y-84727791D01*
X221111889Y-84576126D01*
X221042085Y-84407604D01*
X221006500Y-84228703D01*
X221006500Y-84046297D01*
X221042085Y-83867396D01*
X221111889Y-83698874D01*
X221213228Y-83547209D01*
X221342209Y-83418228D01*
X221493874Y-83316889D01*
X221662396Y-83247085D01*
X221841297Y-83211500D01*
X222023703Y-83211500D01*
X222202604Y-83247085D01*
X222202604Y-83247085D01*
G37*
G36*
X208558974Y-63121184D02*
G01*
X208776974Y-63211483D01*
X208931123Y-63275333D01*
X209266048Y-63499123D01*
X209550877Y-63783952D01*
X209774667Y-64118877D01*
X209807062Y-64197086D01*
X209928816Y-64491026D01*
X210007400Y-64886094D01*
X210007400Y-65288906D01*
X209928816Y-65683974D01*
X209877951Y-65806772D01*
X209774667Y-66056123D01*
X209550877Y-66391048D01*
X209266048Y-66675877D01*
X208931123Y-66899667D01*
X208776974Y-66963517D01*
X208558974Y-67053816D01*
X208163906Y-67132400D01*
X207761094Y-67132400D01*
X207366026Y-67053816D01*
X207148026Y-66963517D01*
X206993877Y-66899667D01*
X206658952Y-66675877D01*
X206374123Y-66391048D01*
X206150333Y-66056123D01*
X206047049Y-65806772D01*
X205996184Y-65683974D01*
X205917600Y-65288906D01*
X205917600Y-64886094D01*
X205996184Y-64491026D01*
X206117938Y-64197086D01*
X206150333Y-64118877D01*
X206374123Y-63783952D01*
X206658952Y-63499123D01*
X206993877Y-63275333D01*
X207148026Y-63211483D01*
X207366026Y-63121184D01*
X207761094Y-63042600D01*
X208163906Y-63042600D01*
X208558974Y-63121184D01*
X208558974Y-63121184D01*
G37*
G36*
X227608974Y-63121184D02*
G01*
X227826974Y-63211483D01*
X227981123Y-63275333D01*
X228316048Y-63499123D01*
X228600877Y-63783952D01*
X228824667Y-64118877D01*
X228857062Y-64197086D01*
X228978816Y-64491026D01*
X229057400Y-64886094D01*
X229057400Y-65288906D01*
X228978816Y-65683974D01*
X228927951Y-65806772D01*
X228824667Y-66056123D01*
X228600877Y-66391048D01*
X228316048Y-66675877D01*
X227981123Y-66899667D01*
X227826974Y-66963517D01*
X227608974Y-67053816D01*
X227213906Y-67132400D01*
X226811094Y-67132400D01*
X226416026Y-67053816D01*
X226198026Y-66963517D01*
X226043877Y-66899667D01*
X225708952Y-66675877D01*
X225424123Y-66391048D01*
X225200333Y-66056123D01*
X225097049Y-65806772D01*
X225046184Y-65683974D01*
X224967600Y-65288906D01*
X224967600Y-64886094D01*
X225046184Y-64491026D01*
X225167938Y-64197086D01*
X225200333Y-64118877D01*
X225424123Y-63783952D01*
X225708952Y-63499123D01*
X226043877Y-63275333D01*
X226198026Y-63211483D01*
X226416026Y-63121184D01*
X226811094Y-63042600D01*
X227213906Y-63042600D01*
X227608974Y-63121184D01*
X227608974Y-63121184D01*
G37*
G36*
X203152604Y-64197085D02*
G01*
X203321126Y-64266889D01*
X203472791Y-64368228D01*
X203601772Y-64497209D01*
X203703111Y-64648874D01*
X203772915Y-64817396D01*
X203808500Y-64996297D01*
X203808500Y-65178703D01*
X203772915Y-65357604D01*
X203703111Y-65526126D01*
X203601772Y-65677791D01*
X203472791Y-65806772D01*
X203321126Y-65908111D01*
X203152604Y-65977915D01*
X202973703Y-66013500D01*
X202791297Y-66013500D01*
X202612396Y-65977915D01*
X202443874Y-65908111D01*
X202292209Y-65806772D01*
X202163228Y-65677791D01*
X202061889Y-65526126D01*
X201992085Y-65357604D01*
X201956500Y-65178703D01*
X201956500Y-64996297D01*
X201992085Y-64817396D01*
X202061889Y-64648874D01*
X202163228Y-64497209D01*
X202292209Y-64368228D01*
X202443874Y-64266889D01*
X202612396Y-64197085D01*
X202791297Y-64161500D01*
X202973703Y-64161500D01*
X203152604Y-64197085D01*
X203152604Y-64197085D01*
G37*
G36*
X213312604Y-64197085D02*
G01*
X213481126Y-64266889D01*
X213632791Y-64368228D01*
X213761772Y-64497209D01*
X213863111Y-64648874D01*
X213932915Y-64817396D01*
X213968500Y-64996297D01*
X213968500Y-65178703D01*
X213932915Y-65357604D01*
X213863111Y-65526126D01*
X213761772Y-65677791D01*
X213632791Y-65806772D01*
X213481126Y-65908111D01*
X213312604Y-65977915D01*
X213133703Y-66013500D01*
X212951297Y-66013500D01*
X212772396Y-65977915D01*
X212603874Y-65908111D01*
X212452209Y-65806772D01*
X212323228Y-65677791D01*
X212221889Y-65526126D01*
X212152085Y-65357604D01*
X212116500Y-65178703D01*
X212116500Y-64996297D01*
X212152085Y-64817396D01*
X212221889Y-64648874D01*
X212323228Y-64497209D01*
X212452209Y-64368228D01*
X212603874Y-64266889D01*
X212772396Y-64197085D01*
X212951297Y-64161500D01*
X213133703Y-64161500D01*
X213312604Y-64197085D01*
X213312604Y-64197085D01*
G37*
G36*
X232362604Y-64197085D02*
G01*
X232531126Y-64266889D01*
X232682791Y-64368228D01*
X232811772Y-64497209D01*
X232913111Y-64648874D01*
X232982915Y-64817396D01*
X233018500Y-64996297D01*
X233018500Y-65178703D01*
X232982915Y-65357604D01*
X232913111Y-65526126D01*
X232811772Y-65677791D01*
X232682791Y-65806772D01*
X232531126Y-65908111D01*
X232362604Y-65977915D01*
X232183703Y-66013500D01*
X232001297Y-66013500D01*
X231822396Y-65977915D01*
X231653874Y-65908111D01*
X231502209Y-65806772D01*
X231373228Y-65677791D01*
X231271889Y-65526126D01*
X231202085Y-65357604D01*
X231166500Y-65178703D01*
X231166500Y-64996297D01*
X231202085Y-64817396D01*
X231271889Y-64648874D01*
X231373228Y-64497209D01*
X231502209Y-64368228D01*
X231653874Y-64266889D01*
X231822396Y-64197085D01*
X232001297Y-64161500D01*
X232183703Y-64161500D01*
X232362604Y-64197085D01*
X232362604Y-64197085D01*
G37*
G36*
X222202604Y-64197085D02*
G01*
X222371126Y-64266889D01*
X222522791Y-64368228D01*
X222651772Y-64497209D01*
X222753111Y-64648874D01*
X222822915Y-64817396D01*
X222858500Y-64996297D01*
X222858500Y-65178703D01*
X222822915Y-65357604D01*
X222753111Y-65526126D01*
X222651772Y-65677791D01*
X222522791Y-65806772D01*
X222371126Y-65908111D01*
X222202604Y-65977915D01*
X222023703Y-66013500D01*
X221841297Y-66013500D01*
X221662396Y-65977915D01*
X221493874Y-65908111D01*
X221342209Y-65806772D01*
X221213228Y-65677791D01*
X221111889Y-65526126D01*
X221042085Y-65357604D01*
X221006500Y-65178703D01*
X221006500Y-64996297D01*
X221042085Y-64817396D01*
X221111889Y-64648874D01*
X221213228Y-64497209D01*
X221342209Y-64368228D01*
X221493874Y-64266889D01*
X221662396Y-64197085D01*
X221841297Y-64161500D01*
X222023703Y-64161500D01*
X222202604Y-64197085D01*
X222202604Y-64197085D01*
G37*
G36*
X177657877Y-60262037D02*
G01*
X177827716Y-60313557D01*
X177984241Y-60397222D01*
X178019979Y-60426552D01*
X178121436Y-60509814D01*
X178204698Y-60611271D01*
X178234028Y-60647009D01*
X178317693Y-60803534D01*
X178369213Y-60973373D01*
X178382250Y-61105742D01*
X178382250Y-62194258D01*
X178369213Y-62326627D01*
X178317693Y-62496466D01*
X178234028Y-62652991D01*
X178204698Y-62688729D01*
X178121436Y-62790186D01*
X177984239Y-62902779D01*
X177827717Y-62986442D01*
X177827715Y-62986443D01*
X177657876Y-63037963D01*
X177481250Y-63055359D01*
X177304623Y-63037963D01*
X177134784Y-62986443D01*
X176978259Y-62902778D01*
X176942521Y-62873448D01*
X176841064Y-62790186D01*
X176728471Y-62652989D01*
X176644808Y-62496467D01*
X176644807Y-62496465D01*
X176593287Y-62326626D01*
X176580250Y-62194257D01*
X176580251Y-61105742D01*
X176593288Y-60973373D01*
X176644808Y-60803534D01*
X176728473Y-60647009D01*
X176757803Y-60611271D01*
X176841065Y-60509814D01*
X176942522Y-60426552D01*
X176978260Y-60397222D01*
X177134785Y-60313557D01*
X177304624Y-60262037D01*
X177481250Y-60244641D01*
X177657877Y-60262037D01*
X177657877Y-60262037D01*
G37*
G36*
X170357877Y-60262037D02*
G01*
X170527716Y-60313557D01*
X170684241Y-60397222D01*
X170719979Y-60426552D01*
X170821436Y-60509814D01*
X170904698Y-60611271D01*
X170934028Y-60647009D01*
X171017693Y-60803534D01*
X171069213Y-60973373D01*
X171082250Y-61105742D01*
X171082250Y-62194258D01*
X171069213Y-62326627D01*
X171017693Y-62496466D01*
X170934028Y-62652991D01*
X170904698Y-62688729D01*
X170821436Y-62790186D01*
X170684239Y-62902779D01*
X170527717Y-62986442D01*
X170527715Y-62986443D01*
X170357876Y-63037963D01*
X170181250Y-63055359D01*
X170004623Y-63037963D01*
X169834784Y-62986443D01*
X169678259Y-62902778D01*
X169642521Y-62873448D01*
X169541064Y-62790186D01*
X169428471Y-62652989D01*
X169344808Y-62496467D01*
X169344807Y-62496465D01*
X169293287Y-62326626D01*
X169280250Y-62194257D01*
X169280251Y-61105742D01*
X169293288Y-60973373D01*
X169344808Y-60803534D01*
X169428473Y-60647009D01*
X169457803Y-60611271D01*
X169541065Y-60509814D01*
X169642522Y-60426552D01*
X169678260Y-60397222D01*
X169834785Y-60313557D01*
X170004624Y-60262037D01*
X170181250Y-60244641D01*
X170357877Y-60262037D01*
X170357877Y-60262037D01*
G37*
G36*
X177657877Y-55762037D02*
G01*
X177827716Y-55813557D01*
X177984241Y-55897222D01*
X178019979Y-55926552D01*
X178121436Y-56009814D01*
X178204698Y-56111271D01*
X178234028Y-56147009D01*
X178317693Y-56303534D01*
X178369213Y-56473373D01*
X178382250Y-56605742D01*
X178382250Y-57694258D01*
X178369213Y-57826627D01*
X178317693Y-57996466D01*
X178234028Y-58152991D01*
X178204698Y-58188729D01*
X178121436Y-58290186D01*
X177984239Y-58402779D01*
X177827717Y-58486442D01*
X177827715Y-58486443D01*
X177657876Y-58537963D01*
X177481250Y-58555359D01*
X177304623Y-58537963D01*
X177134784Y-58486443D01*
X176978259Y-58402778D01*
X176942521Y-58373448D01*
X176841064Y-58290186D01*
X176728471Y-58152989D01*
X176644808Y-57996467D01*
X176644807Y-57996465D01*
X176593287Y-57826626D01*
X176580250Y-57694257D01*
X176580251Y-56605742D01*
X176593288Y-56473373D01*
X176644808Y-56303534D01*
X176728473Y-56147009D01*
X176757803Y-56111271D01*
X176841065Y-56009814D01*
X176942522Y-55926552D01*
X176978260Y-55897222D01*
X177134785Y-55813557D01*
X177304624Y-55762037D01*
X177481250Y-55744641D01*
X177657877Y-55762037D01*
X177657877Y-55762037D01*
G37*
G36*
X170357877Y-55762037D02*
G01*
X170527716Y-55813557D01*
X170684241Y-55897222D01*
X170719979Y-55926552D01*
X170821436Y-56009814D01*
X170904698Y-56111271D01*
X170934028Y-56147009D01*
X171017693Y-56303534D01*
X171069213Y-56473373D01*
X171082250Y-56605742D01*
X171082250Y-57694258D01*
X171069213Y-57826627D01*
X171017693Y-57996466D01*
X170934028Y-58152991D01*
X170904698Y-58188729D01*
X170821436Y-58290186D01*
X170684239Y-58402779D01*
X170527717Y-58486442D01*
X170527715Y-58486443D01*
X170357876Y-58537963D01*
X170181250Y-58555359D01*
X170004623Y-58537963D01*
X169834784Y-58486443D01*
X169678259Y-58402778D01*
X169642521Y-58373448D01*
X169541064Y-58290186D01*
X169428471Y-58152989D01*
X169344808Y-57996467D01*
X169344807Y-57996465D01*
X169293287Y-57826626D01*
X169280250Y-57694257D01*
X169280251Y-56605742D01*
X169293288Y-56473373D01*
X169344808Y-56303534D01*
X169428473Y-56147009D01*
X169457803Y-56111271D01*
X169541065Y-56009814D01*
X169642522Y-55926552D01*
X169678260Y-55897222D01*
X169834785Y-55813557D01*
X170004624Y-55762037D01*
X170181250Y-55744641D01*
X170357877Y-55762037D01*
X170357877Y-55762037D01*
G37*
M02*
