M48
; DRILL file {KiCad (5.1.4)-1} date 9/25/2020 6:07:26 PM
; FORMAT={-:-/ absolute / metric / decimal}
; #@! TF.CreationDate,2020-09-25T18:07:26-04:00
; #@! TF.GenerationSoftware,Kicad,Pcbnew,(5.1.4)-1
; #@! TF.FileFunction,Plated,1,2,PTH
FMAT,2
METRIC
T1C0.400
T2C0.700
T3C1.470
%
G90
G05
T1
X168.275Y-89.694
X172.244Y-84.138
X176.213Y-72.231
X177.006Y-86.519
X178.594Y-73.025
X178.594Y-74.612
X180.975Y-87.312
X181.769Y-68.263
X184.141Y-69.056
X196.056Y-71.438
X197.644Y-70.644
T3
X223.202Y-62.547
X224.512Y-61.087
X229.512Y-60.587
X229.552Y-60.008
X223.202Y-81.597
X224.512Y-80.138
X229.512Y-79.638
X229.552Y-79.057
X204.153Y-62.547
X205.462Y-61.087
X210.462Y-60.587
X210.502Y-60.008
X204.153Y-81.597
X205.462Y-80.138
X210.462Y-79.638
X210.502Y-79.057
T2
G00X170.181Y-56.55
M15
G01X170.181Y-57.75
M16
G05
G00X170.181Y-61.05
M15
G01X170.181Y-62.25
M16
G05
G00X177.481Y-56.55
M15
G01X177.481Y-57.75
M16
G05
G00X177.481Y-61.05
M15
G01X177.481Y-62.25
M16
G05
T0
M30
