G04 #@! TF.GenerationSoftware,KiCad,Pcbnew,(5.1.4)-1*
G04 #@! TF.CreationDate,2020-09-25T18:06:27-04:00*
G04 #@! TF.ProjectId,2x2 micro pad,32783220-6d69-4637-926f-207061642e6b,rev?*
G04 #@! TF.SameCoordinates,Original*
G04 #@! TF.FileFunction,Legend,Top*
G04 #@! TF.FilePolarity,Positive*
%FSLAX46Y46*%
G04 Gerber Fmt 4.6, Leading zero omitted, Abs format (unit mm)*
G04 Created by KiCad (PCBNEW (5.1.4)-1) date 2020-09-25 18:06:27*
%MOMM*%
%LPD*%
G04 APERTURE LIST*
%ADD10C,0.150000*%
%ADD11C,4.089800*%
%ADD12C,1.852000*%
%ADD13O,1.802000X2.802000*%
G04 APERTURE END LIST*
D10*
X193639062Y-90622380D02*
X193764062Y-89622380D01*
X194002157Y-89622380D01*
X194139062Y-89670000D01*
X194222395Y-89765238D01*
X194258110Y-89860476D01*
X194281919Y-90050952D01*
X194264062Y-90193809D01*
X194192633Y-90384285D01*
X194133110Y-90479523D01*
X194025967Y-90574761D01*
X193877157Y-90622380D01*
X193639062Y-90622380D01*
X194639062Y-90622380D02*
X194722395Y-89955714D01*
X194698586Y-90146190D02*
X194758110Y-90050952D01*
X194811681Y-90003333D01*
X194912872Y-89955714D01*
X195008110Y-89955714D01*
X195645014Y-90574761D02*
X195543824Y-90622380D01*
X195353348Y-90622380D01*
X195264062Y-90574761D01*
X195228348Y-90479523D01*
X195275967Y-90098571D01*
X195335491Y-90003333D01*
X195436681Y-89955714D01*
X195627157Y-89955714D01*
X195716443Y-90003333D01*
X195752157Y-90098571D01*
X195740252Y-90193809D01*
X195252157Y-90289047D01*
X196543824Y-90622380D02*
X196609300Y-90098571D01*
X196573586Y-90003333D01*
X196484300Y-89955714D01*
X196293824Y-89955714D01*
X196192633Y-90003333D01*
X196549776Y-90574761D02*
X196448586Y-90622380D01*
X196210491Y-90622380D01*
X196121205Y-90574761D01*
X196085491Y-90479523D01*
X196097395Y-90384285D01*
X196156919Y-90289047D01*
X196258110Y-90241428D01*
X196496205Y-90241428D01*
X196597395Y-90193809D01*
X197020014Y-90622380D02*
X197103348Y-89955714D01*
X197091443Y-90050952D02*
X197145014Y-90003333D01*
X197246205Y-89955714D01*
X197389062Y-89955714D01*
X197478348Y-90003333D01*
X197514062Y-90098571D01*
X197448586Y-90622380D01*
X197514062Y-90098571D02*
X197573586Y-90003333D01*
X197674776Y-89955714D01*
X197817633Y-89955714D01*
X197906919Y-90003333D01*
X197942633Y-90098571D01*
X197877157Y-90622380D01*
X198353348Y-90622380D02*
X198436681Y-89955714D01*
X198424776Y-90050952D02*
X198478348Y-90003333D01*
X198579538Y-89955714D01*
X198722395Y-89955714D01*
X198811681Y-90003333D01*
X198847395Y-90098571D01*
X198781919Y-90622380D01*
X198847395Y-90098571D02*
X198906919Y-90003333D01*
X199008110Y-89955714D01*
X199150967Y-89955714D01*
X199240252Y-90003333D01*
X199275967Y-90098571D01*
X199210491Y-90622380D01*
X200115252Y-90622380D02*
X200180729Y-90098571D01*
X200145014Y-90003333D01*
X200055729Y-89955714D01*
X199865252Y-89955714D01*
X199764062Y-90003333D01*
X200121205Y-90574761D02*
X200020014Y-90622380D01*
X199781919Y-90622380D01*
X199692633Y-90574761D01*
X199656919Y-90479523D01*
X199668824Y-90384285D01*
X199728348Y-90289047D01*
X199829538Y-90241428D01*
X200067633Y-90241428D01*
X200168824Y-90193809D01*
X200591443Y-90622380D02*
X200716443Y-89622380D01*
X200734300Y-90241428D02*
X200972395Y-90622380D01*
X201055729Y-89955714D02*
X200627157Y-90336666D01*
X201787872Y-90574761D02*
X201686681Y-90622380D01*
X201496205Y-90622380D01*
X201406919Y-90574761D01*
X201371205Y-90479523D01*
X201418824Y-90098571D01*
X201478348Y-90003333D01*
X201579538Y-89955714D01*
X201770014Y-89955714D01*
X201859300Y-90003333D01*
X201895014Y-90098571D01*
X201883110Y-90193809D01*
X201395014Y-90289047D01*
X202258110Y-90622380D02*
X202341443Y-89955714D01*
X202317633Y-90146190D02*
X202377157Y-90050952D01*
X202430729Y-90003333D01*
X202531919Y-89955714D01*
X202627157Y-89955714D01*
%LPC*%
D11*
X227012500Y-84137500D03*
D12*
X221932500Y-84137500D03*
X232092500Y-84137500D03*
D13*
X170181250Y-57150000D03*
X177481250Y-57150000D03*
X177481250Y-61650000D03*
X170181250Y-61650000D03*
D11*
X207962500Y-84137500D03*
D12*
X202882500Y-84137500D03*
X213042500Y-84137500D03*
D11*
X227012500Y-65087500D03*
D12*
X221932500Y-65087500D03*
X232092500Y-65087500D03*
D11*
X207962500Y-65087500D03*
D12*
X202882500Y-65087500D03*
X213042500Y-65087500D03*
M02*
