G04 #@! TF.GenerationSoftware,KiCad,Pcbnew,(5.1.4)-1*
G04 #@! TF.CreationDate,2020-09-25T18:06:27-04:00*
G04 #@! TF.ProjectId,2x2 micro pad,32783220-6d69-4637-926f-207061642e6b,rev?*
G04 #@! TF.SameCoordinates,Original*
G04 #@! TF.FileFunction,Copper,L1,Top*
G04 #@! TF.FilePolarity,Positive*
%FSLAX46Y46*%
G04 Gerber Fmt 4.6, Leading zero omitted, Abs format (unit mm)*
G04 Created by KiCad (PCBNEW (5.1.4)-1) date 2020-09-25 18:06:27*
%MOMM*%
%LPD*%
G04 APERTURE LIST*
%ADD10C,2.250000*%
%ADD11C,2.250000*%
%ADD12O,1.700000X2.700000*%
%ADD13C,0.800000*%
%ADD14C,0.381000*%
%ADD15C,0.254000*%
G04 APERTURE END LIST*
D10*
X229532500Y-79347500D03*
D11*
X229512500Y-79637500D02*
X229552500Y-79057500D01*
D10*
X229552500Y-79057500D03*
X223857501Y-80867500D03*
D11*
X223202500Y-81597500D02*
X224512502Y-80137500D01*
D10*
X224512500Y-80137500D03*
D12*
X170181250Y-57150000D03*
X177481250Y-57150000D03*
X177481250Y-61650000D03*
X170181250Y-61650000D03*
D10*
X210482500Y-79347500D03*
D11*
X210462500Y-79637500D02*
X210502500Y-79057500D01*
D10*
X210502500Y-79057500D03*
X204807501Y-80867500D03*
D11*
X204152500Y-81597500D02*
X205462502Y-80137500D01*
D10*
X205462500Y-80137500D03*
X229532500Y-60297500D03*
D11*
X229512500Y-60587500D02*
X229552500Y-60007500D01*
D10*
X229552500Y-60007500D03*
X223857501Y-61817500D03*
D11*
X223202500Y-62547500D02*
X224512502Y-61087500D01*
D10*
X224512500Y-61087500D03*
X210482500Y-60297500D03*
D11*
X210462500Y-60587500D02*
X210502500Y-60007500D01*
D10*
X210502500Y-60007500D03*
X204807501Y-61817500D03*
D11*
X204152500Y-62547500D02*
X205462502Y-61087500D01*
D10*
X205462500Y-61087500D03*
D13*
X172243750Y-84137500D03*
X176212500Y-72231250D03*
X180975000Y-87312500D03*
X178593750Y-74612500D03*
X184140750Y-69056250D03*
X197643750Y-70643750D03*
X178593750Y-73025000D03*
X177006250Y-86518750D03*
X168275000Y-89693750D03*
X181768750Y-68262500D03*
X196056250Y-71437500D03*
D14*
X172243750Y-84137500D02*
X176212500Y-80168750D01*
X176212500Y-80168750D02*
X176212500Y-72231250D01*
D15*
X180975000Y-87312500D02*
X178593750Y-84931250D01*
X178593750Y-84931250D02*
X178593750Y-74612500D01*
D14*
X185728250Y-70643750D02*
X184140750Y-69056250D01*
X197643750Y-70643750D02*
X185728250Y-70643750D01*
X178593750Y-73025000D02*
X177006250Y-74612500D01*
X177006250Y-74612500D02*
X177006250Y-86518750D01*
D15*
X204152500Y-78827500D02*
X204152500Y-81597500D01*
X204152500Y-62547500D02*
X204152500Y-78827500D01*
X223202500Y-81597500D02*
X223202500Y-62547500D01*
X181768750Y-68262500D02*
X178593750Y-68262500D01*
X168275000Y-78581250D02*
X168275000Y-89693750D01*
X178593750Y-68262500D02*
X168275000Y-78581250D01*
X184943750Y-71437500D02*
X181768750Y-68262500D01*
X196056250Y-71437500D02*
X184943750Y-71437500D01*
M02*
